<svg xmlns="http://www.w3.org/2000/svg" xmlns:svg="http://www.w3.org/2000/svg" xmlns:xlink="http://www.w3.org/1999/xlink" version="1.0" height="720.0000020647171pt" width="1289.9999999995523pt" viewBox="705 1257.0000000000002 1297.9999999995523 726.0000020647171" ><defs><style type="text/css">
            @font-face {
                font-family: 'noto_regular';
                src: url('https://app.creately.com/d/assets/fonts/noto/noto-regular.woff') format('woff'),
                     url('https://app.creately.com/d/assets/fonts/noto/noto-regular.woff2') format('woff2');
                font-weight: normal;
                font-style: normal;
            }
        p {
            margin: 0;
        }
        </style></defs><defs>
        <style>
            span{ display: inline-block; }
            
        </style>
        
        </defs><g id="Beefve9ViTi"><g transform="translate(710 1260.0000000000002)"><rect x="0" y="70.00000148507587" width="269.99994991682064" height="650.0000005796413" fill="rgb(255,255,255)" stroke="#1a1a1a" stroke-width="2" stroke-dasharray="0 0"/><rect x="1" y="71.00000148507587" width="267.99994991682064" height="648.0000005796413" fill="rgb(255,255,255)"  stroke-width="2" stroke-dasharray="0 0"/><rect x="0" y="0" width="269.99994991682064" height="70.00000148507587" fill="none" stroke="#677489" stroke-width="2" stroke-dasharray="0 0"/><rect x="1" y="1" width="267.99994991682064" height="68.00000148507587" fill="rgb(242,245,249)"  stroke-width="2" stroke-dasharray="0 0"/><rect x="269.99994991682064" y="0" width="270.0000005268056" height="70.00000148507587" fill="none" stroke="#677489" stroke-width="2" stroke-dasharray="0 0"/><rect x="270.99994991682064" y="1" width="268.0000005268056" height="68.00000148507587" fill="rgb(242,245,249)"  stroke-width="2" stroke-dasharray="0 0"/><rect x="269.99994991682064" y="70.00000148507587" width="270.0000005268056" height="650.0000005796413" fill="none" stroke="#1a1a1a" stroke-width="2" stroke-dasharray="0 0"/><rect x="270.99994991682064" y="71.00000148507587" width="268.0000005268056" height="648.0000005796413" fill="rgb(255,255,255)"  stroke-width="2" stroke-dasharray="0 0"/><rect x="539.9999504436262" y="0" width="750.0000495559261" height="70.00000148507587" fill="none" stroke="#677489" stroke-width="2" stroke-dasharray="0 0"/><rect x="540.9999504436262" y="1" width="748.0000495559261" height="68.00000148507587" fill="rgb(242,245,249)"  stroke-width="2" stroke-dasharray="0 0"/><rect x="539.9999504436262" y="70.00000148507587" width="750.0000495559261" height="650.0000005796413" fill="none" stroke="#1a1a1a" stroke-width="2" stroke-dasharray="0 0"/><rect x="540.9999504436262" y="71.00000148507587" width="748.0000495559261" height="648.0000005796413" fill="rgb(255,255,255)"  stroke-width="2" stroke-dasharray="0 0"/><rect x="0" y="0" width="269.99994991682064" height="70.00000148507587" fill="none" stroke="#677489" stroke-width="2" stroke-dasharray="0 0"/><rect x="269.99994991682064" y="0" width="270.0000005268056" height="70.00000148507587" fill="none" stroke="#677489" stroke-width="2" stroke-dasharray="0 0"/><rect x="539.9999504436262" y="0" width="750.0000495559261" height="70.00000148507587" fill="none" stroke="#677489" stroke-width="2" stroke-dasharray="0 0"/></g><g transform="translate(827.4949749584104, 1284.000000742538) rotate(0, 17.505, 11)" width="35.01" height="22"><text text-decoration="none" x="0.004999999999999005" fill="#20293A" font-size="12pt" font-family="noto_regular"  y="17.33333396911621">User</text><text text-decoration="none" x="35.004999999999995" fill="#4b4b4b" font-size="10pt" font-family="noto_regular"  y="17.33333396911621"></text></g><g transform="translate(1078.4699501802236, 1284.000000742538) rotate(0, 36.53, 11)" width="73.06" height="22"><text text-decoration="none" x="0.003957061767579262" fill="#20293A" font-size="12pt" font-family="noto_regular"  y="17.33333396911621">Front&#160;</text><text text-decoration="none" x="44.420625" fill="#20293A" font-size="12pt" font-family="noto_regular"  y="17.33333396911621">End</text><text text-decoration="none" x="73.05604293823242" fill="#4b4b4b" font-size="10pt" font-family="noto_regular"  y="17.33333396911621"></text></g><g transform="translate(720, 1340.0000014850762) rotate(0, 0, 0)" width="0.01" height="19.07"><text text-decoration="none" x="0.005" fill="#4b4b4b" font-size="10pt" font-family="noto_regular"  y="15.333333671092987"></text></g><g transform="translate(989.9999499168207, 1340.0000014850762) rotate(0, 0, 0)" width="0.01" height="19.07"><text text-decoration="none" x="0.005" fill="#4b4b4b" font-size="10pt" font-family="noto_regular"  y="15.333333671092987"></text></g><g transform="translate(1590.7999752215892, 1284.000000742538) rotate(0, 34.2, 11)" width="68.4" height="22"><text text-decoration="none" x="0.002082061767580967" fill="#20293A" font-size="12pt" font-family="noto_regular"  y="17.33333396911621">Back&#160;</text><text text-decoration="none" x="39.7625" fill="#20293A" font-size="12pt" font-family="noto_regular"  y="17.33333396911621">End</text><text text-decoration="none" x="68.39791793823242" fill="#4b4b4b" font-size="10pt" font-family="noto_regular"  y="17.33333396911621"></text></g><g transform="translate(1259.9999504436262, 1340.0000014850762) rotate(0, 0, 0)" width="0.01" height="19.07"><text text-decoration="none" x="0.005" fill="#4b4b4b" font-size="10pt" font-family="noto_regular"  y="15.333333671092987"></text></g></g><g id="5GcopxPt7KK"><g transform="translate(800.0000000000001 1340.0000000000002)"><ellipse cx="20" cy="20" rx="20" ry="20" fill="rgb(255,255,255)" stroke="#f9b367" stroke-width="2" stroke-linecap="round" stroke-linejoin="round" stroke-dasharray="0 0"/></g><g transform="translate(805.0300000000001, 1341.9950000000001) rotate(0, 14.97, 18.005)" width="29.94" height="36.01"><text text-decoration="none" x="14.97" fill="#4b4b4b" font-size="10pt" font-family="noto_regular"  y="14.000000298023224"></text><text text-decoration="none" x="0.0012500000000006395" fill="#4b4b4b" font-size="10pt" font-family="noto_regular"  y="32.000001549720764">Start</text><text text-decoration="none" x="29.93875" fill="#4b4b4b" font-size="10pt" font-family="noto_regular"  y="32.000001549720764"></text></g></g><g id="ZqLXAUpbo3p"><g transform="translate(750 1430)"><rect x="0" y="0" width="120" height="60" fill="rgb(255,255,255)" stroke="#24afaf" stroke-width="2" stroke-linecap="round" stroke-linejoin="round" stroke-dasharray="0 0"/></g><g transform="translate(778.78, 1441.995) rotate(0, 31.22, 18.005)" width="62.44" height="36.01"><text text-decoration="none" x="0.0012499999999988631" fill="rgb(26, 26, 26)" font-size="10pt" font-family="noto_regular"  y="14.000000298023224">open&#160;</text><text text-decoration="none" x="35.50125" fill="rgb(26, 26, 26)" font-size="10pt" font-family="noto_regular"  y="14.000000298023224">chat&#160;</text><text text-decoration="none" x="3.464791030883788" fill="rgb(26, 26, 26)" font-size="10pt" font-family="noto_regular"  y="32.000001549720764">interface</text><text text-decoration="none" x="58.97520896911621" fill="#4b4b4b" font-size="10pt" font-family="noto_regular"  y="32.000001549720764"></text></g></g><g id="e7r82tbdr2J"><g><path d="M 820,1380 L 820.0000000000001,1395 Q 820.0000000000001,1400 815,1405 Q 810,1410 810,1415 L 810,1430" fill="none" stroke="#1a1a1a" stroke-width="2" stroke-linecap="round" stroke-linejoin="round" stroke-dasharray="0 0"/><path d="M 810,1430 L 815.75,1421.304347826087 L 804.25,1421.304347826087 Z" fill="rgb(26,26,26)" stroke="#1a1a1a" stroke-width="2" stroke-linecap="round" stroke-linejoin="round"/></g></g><g id="9Gy1PyzoZkW"><g transform="translate(1120 1380.0000000000007)"><rect x="0" y="0" width="120" height="60" fill="rgb(255,255,255)" stroke="#24afaf" stroke-width="2" stroke-linecap="round" stroke-linejoin="round" stroke-dasharray="0 0"/></g><g transform="translate(1152.54, 1391.9950000000006) rotate(0, 27.46, 18.005)" width="54.92" height="36.01"><text text-decoration="none" x="4.887082061767579" fill="rgb(26, 26, 26)" font-size="10pt" font-family="noto_regular"  y="14.000000298023224">Upload&#160;</text><text text-decoration="none" x="0.0016660308837899152" fill="rgb(26, 26, 26)" font-size="10pt" font-family="noto_regular"  y="32.000001549720764">question</text><text text-decoration="none" x="54.91833396911621" fill="#4b4b4b" font-size="10pt" font-family="noto_regular"  y="32.000001549720764"></text></g></g><g id="NdgluUzGG8U"><g><path d="M 870,1460 L 985,1460 Q 995,1460 995,1450 L 995,1435 L 995,1420.0000000000007 Q 995,1410.0000000000007 1005,1410.0000000000007 L 1120,1410" fill="none" stroke="#1a1a1a" stroke-width="2" stroke-linecap="round" stroke-linejoin="round" stroke-dasharray="0 0"/><path d="M 1120,1410 L 1111.304347826087,1404.25 L 1111.304347826087,1415.75 Z" fill="rgb(26,26,26)" stroke="#1a1a1a" stroke-width="2" stroke-linecap="round" stroke-linejoin="round"/></g></g><g id="gup4tLXm31Q"><g transform="translate(999.9999493900151 1474.9994973559626)"><path d="M 17.500432033525275,0 L 0,15.000502644037645 L 17.500432033525275,30.00100528807529 L 35.00086406705055,15.000502644037645 L 17.500432033525275,0 Z" fill="rgb(255,255,255)" stroke="#4b4b4b" stroke-width="2" stroke-linecap="round" stroke-linejoin="round" stroke-dasharray="0 0"/></g><g transform="translate(1010.0003814235404, 1481.0000000000002) rotate(0, 7.5, 9)" width="15" height="18"><text text-decoration="none" x="7.5" fill="#4b4b4b" font-size="10pt" font-family="noto_regular"  y="14.000000298023224"></text><text text-decoration="none" x="7.5" fill="#4b4b4b" font-size="10pt" font-family="noto_regular"  y="32.000001549720764"></text></g></g><g id="xGxdacWBEJQ"><g><path d="M 870,1460 L 924.9999746950075,1460 Q 934.9999746950075,1460 934.9999915650025,1469.9999999999857 L 935,1475 L 934.9999915650025,1480.0000000000146 Q 934.9999746950075,1490.0000000000002 944.9999746950075,1490.0000000000002 L 1000,1490" fill="none" stroke="#1a1a1a" stroke-width="2" stroke-linecap="round" stroke-linejoin="round" stroke-dasharray="0 0"/><path d="M 1000,1490 L 991.304347826087,1484.25 L 991.304347826087,1495.75 Z" fill="rgb(26,26,26)" stroke="#1a1a1a" stroke-width="2" stroke-linecap="round" stroke-linejoin="round"/></g></g><g id="uRLgJIzWMeF"><g transform="translate(1035.00081 1640.0000000000007)"><rect x="0" y="0" width="120" height="60" fill="rgb(255,255,255)" stroke="#24afaf" stroke-width="2" stroke-linecap="round" stroke-linejoin="round" stroke-dasharray="0 0"/></g><g transform="translate(1061.19581, 1660.9950000000006) rotate(0, 33.805, 9.005)" width="67.61" height="18.01"><text text-decoration="none" x="0.002915077209472372" fill="rgb(26, 26, 26)" font-size="10pt" font-family="noto_regular"  y="14.000000298023224">Upload&#160;</text><text text-decoration="none" x="48.617500953674316" fill="rgb(26, 26, 26)" font-size="10pt" font-family="noto_regular"  y="14.000000298023224">file</text><text text-decoration="none" x="67.60708492279053" fill="#4b4b4b" font-size="10pt" font-family="noto_regular"  y="14.000000298023224"></text></g></g><g id="KYpJ63Pk2Cq"><mask id="cf376" x="1004" y="1491" width="105" height="163" maskUnits="userSpaceOnUse"><rect x="1004" y="1491" width="105" height="163" fill="white" /><rect x="1057.9557172170207" y="1521.7406265540315" width="74.09" height="24.01" fill="black" /></mask><g mask="url(#cf376)"><path d="M 1018,1505 L 1017.8332758664003,1510.0055424714537 Q 1017.5003814235404,1520 1027.5003814235404,1520 L 1056,1520 L 1085.00081,1520 Q 1095.00081,1520 1095.0007425000001,1529.9999999997722 L 1095,1640" fill="none" stroke="#1a1a1a" stroke-width="2" stroke-linecap="round" stroke-linejoin="round" stroke-dasharray="0 0"/><path d="M 1095,1640 L 1100.75,1631.304347826087 L 1089.25,1631.304347826087 Z" fill="rgb(26,26,26)" stroke="#1a1a1a" stroke-width="2" stroke-linecap="round" stroke-linejoin="round"/></g><g transform="translate(1060.9557172170207, 1524.7406265540315)" width="68.09" height="18.01"><text text-decoration="none" x="0.0033330154418962366" fill="#4b4b4b" font-size="10pt" font-family="noto_regular"  y="14.000000298023224">answer&#160;</text><text text-decoration="none" x="49.097083015441896" fill="#4b4b4b" font-size="10pt" font-family="noto_regular"  y="14.000000298023224">file</text><text text-decoration="none" x="68.08666698455811" fill="#4b4b4b" font-size="10pt" font-family="noto_regular"  y="14.000000298023224"></text></g></g><g id="MwLsKoR2pM5"><g transform="translate(1120 1460.0000000000007)"><rect x="0" y="0" width="120" height="60" fill="rgb(255,255,255)" stroke="#24afaf" stroke-width="2" stroke-linecap="round" stroke-linejoin="round" stroke-dasharray="0 0"/></g><g transform="translate(1134.82, 1480.9950000000006) rotate(0, 45.18, 9.005)" width="90.36" height="18.01"><text text-decoration="none" x="0.0029160308837887783" fill="rgb(26, 26, 26)" font-size="10pt" font-family="noto_regular"  y="14.000000298023224">Send&#160;</text><text text-decoration="none" x="34.76333396911621" fill="rgb(26, 26, 26)" font-size="10pt" font-family="noto_regular"  y="14.000000298023224">Message</text><text text-decoration="none" x="90.35708396911622" fill="#4b4b4b" font-size="10pt" font-family="noto_regular"  y="14.000000298023224"></text></g></g><g id="UZUncdxXOrY"><mask id="34724" x="1021" y="1476" width="113" height="28" maskUnits="userSpaceOnUse"><rect x="1021" y="1476" width="113" height="28" fill="white" /><rect x="1046.5150000000006" y="1477.9950000000001" width="61.97" height="24.01" fill="black" /></mask><g mask="url(#34724)"><path d="M 1035,1490 L 1070,1490.0000000000002 Q 1070.0000000000002,1490.0000000000002 1080,1490 Q 1089.9999999999993,1490.0000000000005 1090,1490.0000000000005 L 1120,1490" fill="none" stroke="#1a1a1a" stroke-width="2" stroke-linecap="round" stroke-linejoin="round" stroke-dasharray="0 0"/><path d="M 1120,1490 L 1111.304347826087,1484.25 L 1111.304347826087,1495.75 Z" fill="rgb(26,26,26)" stroke="#1a1a1a" stroke-width="2" stroke-linecap="round" stroke-linejoin="round"/></g><g transform="translate(1049.5150000000006, 1480.9950000000001)" width="55.97" height="18.01"><text text-decoration="none" x="0.0006249999999994316" fill="#4b4b4b" font-size="10pt" font-family="noto_regular"  y="14.000000298023224">message</text><text text-decoration="none" x="55.969375" fill="#4b4b4b" font-size="10pt" font-family="noto_regular"  y="14.000000298023224"></text></g></g><g id="IdfWhVcVX49"><g transform="translate(1300.0000000000007 1370.0000000000007)"><rect x="0" y="0" width="120" height="80" fill="rgb(255,255,255)" stroke="#24afaf" stroke-width="2" stroke-linecap="round" stroke-linejoin="round" stroke-dasharray="0 0"/></g><g transform="translate(1316.6150000000007, 1382.9950000000006) rotate(0, 43.385, 27.005)" width="86.77" height="54.01"><text text-decoration="none" x="14.822499999999998" fill="rgb(26, 26, 26)" font-size="10pt" font-family="noto_regular"  y="14.000000298023224">Question&#160;</text><text text-decoration="none" x="0.004790077209470667" fill="rgb(26, 26, 26)" font-size="10pt" font-family="noto_regular"  y="32.000001549720764">uploaded&#160;</text><text text-decoration="none" x="62.838125953674314" fill="rgb(26, 26, 26)" font-size="10pt" font-family="noto_regular"  y="32.000001549720764">and&#160;</text><text text-decoration="none" x="9.207914123535154" fill="rgb(26, 26, 26)" font-size="10pt" font-family="noto_regular"  y="50.000002801418304">processing</text><text text-decoration="none" x="77.56208587646483" fill="#4b4b4b" font-size="10pt" font-family="noto_regular"  y="50.000002801418304"></text></g></g><g id="PrEuhAHcpGm"><g><path d="M 1240,1410 L 1300,1410" fill="none" stroke="#1a1a1a" stroke-width="2" stroke-linecap="round" stroke-linejoin="round" stroke-dasharray="0 0"/><path d="M 1300,1410 L 1291.304347826087,1404.25 L 1291.304347826087,1415.75 Z" fill="rgb(26,26,26)" stroke="#1a1a1a" stroke-width="2" stroke-linecap="round" stroke-linejoin="round"/></g></g><g id="IzfBpjC3jcA"><g transform="translate(1300.0000000000002 1474.9995000000006)"><rect x="0" y="0" width="120" height="60" fill="rgb(255,255,255)" stroke="#24afaf" stroke-width="2" stroke-linecap="round" stroke-linejoin="round" stroke-dasharray="0 0"/></g><g transform="translate(1313.5850000000003, 1486.9945000000005) rotate(0, 46.415, 18.005)" width="92.83" height="36.01"><text text-decoration="none" x="5.789999046325683" fill="rgb(26, 26, 26)" font-size="10pt" font-family="noto_regular"  y="14.000000298023224">Receives&#160;</text><text text-decoration="none" x="63.112916984558105" fill="rgb(26, 26, 26)" font-size="10pt" font-family="noto_regular"  y="14.000000298023224">and&#160;</text><text text-decoration="none" x="0.0035396003723136005" fill="rgb(26, 26, 26)" font-size="10pt" font-family="noto_regular"  y="32.000001549720764">sends&#160;</text><text text-decoration="none" x="40.21187547683716" fill="rgb(26, 26, 26)" font-size="10pt" font-family="noto_regular"  y="32.000001549720764">to&#160;</text><text text-decoration="none" x="56.56604246139526" fill="rgb(26, 26, 26)" font-size="10pt" font-family="noto_regular"  y="32.000001549720764">mode</text><text text-decoration="none" x="92.82646039962768" fill="#4b4b4b" font-size="10pt" font-family="noto_regular"  y="32.000001549720764"></text></g></g><g id="lyNaw7WFTxh"><g><path d="M 1240,1490 L 1260,1490.0000000000005 Q 1266.9999999999993,1490.0000000000007 1270,1497 Q 1272.0004999997216,1504.9995333416673 1279.9999999986112,1504.999666666667 L 1300,1505" fill="none" stroke="#1a1a1a" stroke-width="2" stroke-linecap="round" stroke-linejoin="round" stroke-dasharray="0 0"/><path d="M 1300,1505 L 1291.304347826087,1499.25 L 1291.304347826087,1510.75 Z" fill="rgb(26,26,26)" stroke="#1a1a1a" stroke-width="2" stroke-linecap="round" stroke-linejoin="round"/></g></g><g id="FblIf8Ea4iH"><g transform="translate(1300.0000000000002 1580.0000000000002)"><rect x="0" y="0" width="120" height="80" fill="rgb(255,255,255)" stroke="#24afaf" stroke-width="2" stroke-linecap="round" stroke-linejoin="round" stroke-dasharray="0 0"/></g><g transform="translate(1315.8650000000002, 1592.9950000000001) rotate(0, 44.135, 27.005)" width="88.27" height="54.01"><text text-decoration="none" x="0.004790077209470667" fill="rgb(26, 26, 26)" font-size="10pt" font-family="noto_regular"  y="14.000000298023224">Uploaded&#160;</text><text text-decoration="none" x="64.33812595367431" fill="rgb(26, 26, 26)" font-size="10pt" font-family="noto_regular"  y="14.000000298023224">and&#160;</text><text text-decoration="none" x="10.838123569488523" fill="rgb(26, 26, 26)" font-size="10pt" font-family="noto_regular"  y="32.000001549720764">sending&#160;</text><text text-decoration="none" x="64.54645944595336" fill="rgb(26, 26, 26)" font-size="10pt" font-family="noto_regular"  y="32.000001549720764">to&#160;</text><text text-decoration="none" x="24.286041030883787" fill="rgb(26, 26, 26)" font-size="10pt" font-family="noto_regular"  y="50.000002801418304">model</text><text text-decoration="none" x="63.98395896911621" fill="#4b4b4b" font-size="10pt" font-family="noto_regular"  y="50.000002801418304"></text></g></g><g id="ekAeaudrCxs"><g><path d="M 1155,1670 L 1217.5004050000002,1670.0000000000007 Q 1227.5004050000002,1670.0000000000007 1227.700203109069,1660.0019961634534 L 1228,1645 L 1227.700203109069,1629.9980038365475 Q 1227.5004050000002,1620.0000000000002 1237.5004050000002,1620.0000000000002 L 1300,1620" fill="none" stroke="#1a1a1a" stroke-width="2" stroke-linecap="round" stroke-linejoin="round" stroke-dasharray="0 0"/><path d="M 1300,1620 L 1291.304347826087,1614.25 L 1291.304347826087,1625.75 Z" fill="rgb(26,26,26)" stroke="#1a1a1a" stroke-width="2" stroke-linecap="round" stroke-linejoin="round"/></g></g><g id="zczoJZ6WDgz"><g transform="translate(1520 1480.0000000000002)"><rect x="0" y="0" width="120" height="100" fill="rgb(255,255,255)" stroke="#24afaf" stroke-width="2" stroke-linecap="round" stroke-linejoin="round" stroke-dasharray="0 0"/></g><g transform="translate(1544.36, 1493.9950000000001) rotate(0, 35.64, 36.005)" width="71.28" height="72.01"><text text-decoration="none" x="7.358749046325684" fill="rgb(26, 26, 26)" font-size="10pt" font-family="noto_regular"  y="14.000000298023224">Calls&#160;</text><text text-decoration="none" x="39.994166984558106" fill="rgb(26, 26, 26)" font-size="10pt" font-family="noto_regular"  y="14.000000298023224">and&#160;</text><text text-decoration="none" x="14.457707061767579" fill="rgb(26, 26, 26)" font-size="10pt" font-family="noto_regular"  y="32.000001549720764">passes&#160;</text><text text-decoration="none" x="0.0045825386047368966" fill="rgb(26, 26, 26)" font-size="10pt" font-family="noto_regular"  y="50.000002801418304">question&#160;</text><text text-decoration="none" x="58.39000047683716" fill="rgb(26, 26, 26)" font-size="10pt" font-family="noto_regular"  y="50.000002801418304">to&#160;</text><text text-decoration="none" x="8.561875" fill="rgb(26, 26, 26)" font-size="10pt" font-family="noto_regular"  y="68.00000405311584">ChatGPT</text><text text-decoration="none" x="62.718125" fill="#4b4b4b" font-size="10pt" font-family="noto_regular"  y="68.00000405311584"></text></g></g><g id="LpLT4xICs90"><g><path d="M 1420,1505 L 1460.0000000005,1504.9996000000006 Q 1470,1504.9995000000006 1470,1514.9995000000006 L 1470,1517 L 1470,1520.0000000000002 Q 1470,1530.0000000000002 1480,1530.0000000000002 L 1520,1530" fill="none" stroke="#1a1a1a" stroke-width="2" stroke-linecap="round" stroke-linejoin="round" stroke-dasharray="0 0"/><path d="M 1520,1530 L 1511.304347826087,1524.25 L 1511.304347826087,1535.75 Z" fill="rgb(26,26,26)" stroke="#1a1a1a" stroke-width="2" stroke-linecap="round" stroke-linejoin="round"/></g></g><g id="h4V1PnJC7eP"><g><path d="M 1420,1620 L 1460,1620.0000000000002 Q 1470,1620.0000000000002 1470,1610.0000000000002 L 1470,1575 L 1470,1540.0000000000002 Q 1470,1530.0000000000002 1480,1530.0000000000002 L 1520,1530" fill="none" stroke="#1a1a1a" stroke-width="2" stroke-linecap="round" stroke-linejoin="round" stroke-dasharray="0 0"/><path d="M 1520,1530 L 1511.304347826087,1524.25 L 1511.304347826087,1535.75 Z" fill="rgb(26,26,26)" stroke="#1a1a1a" stroke-width="2" stroke-linecap="round" stroke-linejoin="round"/></g></g><g id="5l6Iuwe99Tt"><g transform="translate(1740 1480)"><rect x="0" y="0" width="120" height="100" fill="rgb(255,255,255)" stroke="#24afaf" stroke-width="2" stroke-linecap="round" stroke-linejoin="round" stroke-dasharray="0 0"/></g><g transform="translate(1750.265, 1511.995) rotate(0, 49.735, 18.005)" width="99.47" height="36.01"><text text-decoration="none" x="0.0006230926513666191" fill="rgb(26, 26, 26)" font-size="10pt" font-family="noto_regular"  y="14.000000298023224">Calls&#160;</text><text text-decoration="none" x="32.63604103088379" fill="rgb(26, 26, 26)" font-size="10pt" font-family="noto_regular"  y="14.000000298023224">Llama3&#160;</text><text text-decoration="none" x="81.30270896911621" fill="rgb(26, 26, 26)" font-size="10pt" font-family="noto_regular"  y="14.000000298023224">for&#160;</text><text text-decoration="none" x="24.906875" fill="rgb(26, 26, 26)" font-size="10pt" font-family="noto_regular"  y="32.000001549720764">analysis</text><text text-decoration="none" x="74.563125" fill="#4b4b4b" font-size="10pt" font-family="noto_regular"  y="32.000001549720764"></text></g></g><g id="siNETrhlfUp"><g><path d="M 1640,1530 L 1680,1530.0000000000002 Q 1680.0000000000002,1530.0000000000002 1690,1530 Q 1700,1530 1700,1530 L 1740,1530" fill="none" stroke="#1a1a1a" stroke-width="2" stroke-linecap="round" stroke-linejoin="round" stroke-dasharray="0 0"/><path d="M 1740,1530 L 1731.304347826087,1524.25 L 1731.304347826087,1535.75 Z" fill="rgb(26,26,26)" stroke="#1a1a1a" stroke-width="2" stroke-linecap="round" stroke-linejoin="round"/></g></g><g id="5oyGEVoXvY3"><g transform="translate(1740 1680)"><rect x="0" y="0" width="120" height="100" fill="rgb(255,255,255)" stroke="#24afaf" stroke-width="2" stroke-linecap="round" stroke-linejoin="round" stroke-dasharray="0 0"/></g><g transform="translate(1751.585, 1711.995) rotate(0, 48.415, 18.005)" width="96.83" height="36.01"><text text-decoration="none" x="0.00354103088378821" fill="rgb(26, 26, 26)" font-size="10pt" font-family="noto_regular"  y="14.000000298023224">gathers&#160;</text><text text-decoration="none" x="51.62854103088379" fill="rgb(26, 26, 26)" font-size="10pt" font-family="noto_regular"  y="14.000000298023224">Llama3&#160;</text><text text-decoration="none" x="27.086875" fill="rgb(26, 26, 26)" font-size="10pt" font-family="noto_regular"  y="32.000001549720764">verdict</text><text text-decoration="none" x="69.74312499999999" fill="#4b4b4b" font-size="10pt" font-family="noto_regular"  y="32.000001549720764"></text></g></g><g id="THcaVdnTUuh"><g><path d="M 1800,1580 L 1800,1680" fill="none" stroke="#1a1a1a" stroke-width="2" stroke-linecap="round" stroke-linejoin="round" stroke-dasharray="0 0"/><path d="M 1800,1680 L 1805.75,1671.304347826087 L 1794.25,1671.304347826087 Z" fill="rgb(26,26,26)" stroke="#1a1a1a" stroke-width="2" stroke-linecap="round" stroke-linejoin="round"/></g></g><g id="1qeI7kMS6cb"><g transform="translate(760.0000000000001 1730)"><rect x="0" y="0" width="120" height="100" fill="rgb(255,255,255)" stroke="#24afaf" stroke-width="2" stroke-linecap="round" stroke-linejoin="round" stroke-dasharray="0 0"/></g><g transform="translate(773.5100000000001, 1752.995) rotate(0, 46.49, 27.005)" width="92.98" height="54.01"><text text-decoration="none" x="16.177500000000002" fill="rgb(26, 26, 26)" font-size="10pt" font-family="noto_regular"  y="14.000000298023224">Response&#160;</text><text text-decoration="none" x="0.00041650772094925514" fill="rgb(26, 26, 26)" font-size="10pt" font-family="noto_regular"  y="32.000001549720764">returns&#160;</text><text text-decoration="none" x="49.68791650772095" fill="rgb(26, 26, 26)" font-size="10pt" font-family="noto_regular"  y="32.000001549720764">to&#160;</text><text text-decoration="none" x="66.04208349227906" fill="rgb(26, 26, 26)" font-size="10pt" font-family="noto_regular"  y="32.000001549720764">chat&#160;</text><text text-decoration="none" x="18.73479103088379" fill="rgb(26, 26, 26)" font-size="10pt" font-family="noto_regular"  y="50.000002801418304">interface</text><text text-decoration="none" x="74.24520896911622" fill="#4b4b4b" font-size="10pt" font-family="noto_regular"  y="50.000002801418304"></text></g></g><g id="imYBiZIe7dB"><g><path d="M 1740,1730 L 1320,1730 Q 1310,1730 1310,1740 L 1310,1755 L 1310,1770 Q 1310,1780 1300,1780 L 880,1780" fill="none" stroke="#1a1a1a" stroke-width="2" stroke-linecap="round" stroke-linejoin="round" stroke-dasharray="0 0"/><path d="M 880,1780 L 888.695652173913,1785.75 L 888.695652173913,1774.25 Z" fill="rgb(26,26,26)" stroke="#1a1a1a" stroke-width="2" stroke-linecap="round" stroke-linejoin="round"/></g></g><g id="1GGRCQOPFfc"><g transform="translate(799.9999999999999 1890)"><ellipse cx="20" cy="20" rx="20" ry="20" fill="rgb(255,255,255)" stroke="#f9b367" stroke-width="2" stroke-linecap="round" stroke-linejoin="round" stroke-dasharray="0 0"/></g><g transform="translate(808.0649999999999, 1900.995) rotate(0, 11.935, 9.005)" width="23.87" height="18.01"><text text-decoration="none" x="0.0027080154418950286" fill="#4b4b4b" font-size="10pt" font-family="noto_regular"  y="14.000000298023224">End</text><text text-decoration="none" x="23.867291984558108" fill="#4b4b4b" font-size="10pt" font-family="noto_regular"  y="14.000000298023224"></text></g></g><g id="j3LCMBEbLrU"><g><path d="M 820,1830 L 820.0000000000001,1850 Q 820.0000000000001,1850 820,1860 Q 819.9999999999999,1870 819.9999999999999,1870 L 820,1890" fill="none" stroke="#1a1a1a" stroke-width="2" stroke-linecap="round" stroke-linejoin="round" stroke-dasharray="0 0"/><path d="M 820,1890 L 825.75,1881.304347826087 L 814.25,1881.304347826087 Z" fill="rgb(26,26,26)" stroke="#1a1a1a" stroke-width="2" stroke-linecap="round" stroke-linejoin="round"/></g></g></svg>